<mxfile host="app.diagrams.net" modified="2023-09-08T02:51:51.772Z" agent="Mozilla/5.0 (Macintosh; Intel Mac OS X 10_15_7) AppleWebKit/537.36 (KHTML, like Gecko) Chrome/115.0.0.0 Safari/537.36" etag="SbVuUvtV3is9i9scEMY4" version="21.7.2" type="device">
  <diagram name="Page-1" id="2vjVG1d3pZmlTSGQTVrF">
    <mxGraphModel dx="1154" dy="563" grid="1" gridSize="10" guides="1" tooltips="1" connect="1" arrows="1" fold="1" page="1" pageScale="1" pageWidth="827" pageHeight="1169" math="0" shadow="0">
      <root>
        <mxCell id="0" />
        <mxCell id="1" parent="0" />
        <mxCell id="7QwwPpUZNARfCOMOwgrq-4" style="edgeStyle=orthogonalEdgeStyle;rounded=0;orthogonalLoop=1;jettySize=auto;html=1;exitX=0.5;exitY=1;exitDx=0;exitDy=0;entryX=0.5;entryY=0;entryDx=0;entryDy=0;" edge="1" parent="1" source="7QwwPpUZNARfCOMOwgrq-2" target="7QwwPpUZNARfCOMOwgrq-3">
          <mxGeometry relative="1" as="geometry" />
        </mxCell>
        <mxCell id="7QwwPpUZNARfCOMOwgrq-2" value="Start" style="ellipse;whiteSpace=wrap;html=1;" vertex="1" parent="1">
          <mxGeometry x="350" y="20" width="120" height="80" as="geometry" />
        </mxCell>
        <mxCell id="7QwwPpUZNARfCOMOwgrq-6" style="edgeStyle=orthogonalEdgeStyle;rounded=0;orthogonalLoop=1;jettySize=auto;html=1;exitX=0.5;exitY=1;exitDx=0;exitDy=0;entryX=0.5;entryY=0;entryDx=0;entryDy=0;" edge="1" parent="1" source="7QwwPpUZNARfCOMOwgrq-3" target="7QwwPpUZNARfCOMOwgrq-5">
          <mxGeometry relative="1" as="geometry" />
        </mxCell>
        <mxCell id="7QwwPpUZNARfCOMOwgrq-3" value="Importing all packages" style="rounded=0;whiteSpace=wrap;html=1;" vertex="1" parent="1">
          <mxGeometry x="350" y="160" width="120" height="60" as="geometry" />
        </mxCell>
        <mxCell id="7QwwPpUZNARfCOMOwgrq-10" style="edgeStyle=orthogonalEdgeStyle;rounded=0;orthogonalLoop=1;jettySize=auto;html=1;entryX=0.5;entryY=0;entryDx=0;entryDy=0;" edge="1" parent="1" source="7QwwPpUZNARfCOMOwgrq-5" target="7QwwPpUZNARfCOMOwgrq-7">
          <mxGeometry relative="1" as="geometry" />
        </mxCell>
        <mxCell id="7QwwPpUZNARfCOMOwgrq-5" value="Display EDA results" style="rounded=0;whiteSpace=wrap;html=1;" vertex="1" parent="1">
          <mxGeometry x="350" y="280" width="120" height="60" as="geometry" />
        </mxCell>
        <mxCell id="7QwwPpUZNARfCOMOwgrq-13" style="edgeStyle=orthogonalEdgeStyle;rounded=0;orthogonalLoop=1;jettySize=auto;html=1;exitX=0.5;exitY=1;exitDx=0;exitDy=0;entryX=0.5;entryY=0;entryDx=0;entryDy=0;" edge="1" parent="1" source="7QwwPpUZNARfCOMOwgrq-7" target="7QwwPpUZNARfCOMOwgrq-12">
          <mxGeometry relative="1" as="geometry" />
        </mxCell>
        <mxCell id="7QwwPpUZNARfCOMOwgrq-7" value="Display all ML models" style="rounded=0;whiteSpace=wrap;html=1;" vertex="1" parent="1">
          <mxGeometry x="350" y="400" width="120" height="60" as="geometry" />
        </mxCell>
        <mxCell id="7QwwPpUZNARfCOMOwgrq-11" style="edgeStyle=orthogonalEdgeStyle;rounded=0;orthogonalLoop=1;jettySize=auto;html=1;exitX=0.5;exitY=0.5;exitDx=0;exitDy=0;exitPerimeter=0;entryX=0;entryY=0.5;entryDx=0;entryDy=0;" edge="1" parent="1" source="7QwwPpUZNARfCOMOwgrq-8" target="7QwwPpUZNARfCOMOwgrq-9">
          <mxGeometry relative="1" as="geometry" />
        </mxCell>
        <mxCell id="7QwwPpUZNARfCOMOwgrq-8" value="User" style="shape=umlActor;verticalLabelPosition=bottom;verticalAlign=top;html=1;outlineConnect=0;" vertex="1" parent="1">
          <mxGeometry x="90" y="510" width="30" height="60" as="geometry" />
        </mxCell>
        <mxCell id="7QwwPpUZNARfCOMOwgrq-16" style="edgeStyle=orthogonalEdgeStyle;rounded=0;orthogonalLoop=1;jettySize=auto;html=1;exitX=1;exitY=0.5;exitDx=0;exitDy=0;entryX=0;entryY=0.5;entryDx=0;entryDy=0;" edge="1" parent="1" source="7QwwPpUZNARfCOMOwgrq-9" target="7QwwPpUZNARfCOMOwgrq-14">
          <mxGeometry relative="1" as="geometry" />
        </mxCell>
        <mxCell id="7QwwPpUZNARfCOMOwgrq-9" value="Input image&amp;nbsp;" style="shape=parallelogram;perimeter=parallelogramPerimeter;whiteSpace=wrap;html=1;fixedSize=1;" vertex="1" parent="1">
          <mxGeometry x="180" y="510" width="120" height="60" as="geometry" />
        </mxCell>
        <mxCell id="7QwwPpUZNARfCOMOwgrq-15" value="" style="edgeStyle=orthogonalEdgeStyle;rounded=0;orthogonalLoop=1;jettySize=auto;html=1;" edge="1" parent="1" source="7QwwPpUZNARfCOMOwgrq-12" target="7QwwPpUZNARfCOMOwgrq-14">
          <mxGeometry relative="1" as="geometry" />
        </mxCell>
        <mxCell id="7QwwPpUZNARfCOMOwgrq-12" value="Select the ML&lt;br&gt;model&lt;br&gt;" style="shape=parallelogram;perimeter=parallelogramPerimeter;whiteSpace=wrap;html=1;fixedSize=1;" vertex="1" parent="1">
          <mxGeometry x="350" y="510" width="120" height="60" as="geometry" />
        </mxCell>
        <mxCell id="7QwwPpUZNARfCOMOwgrq-18" style="edgeStyle=orthogonalEdgeStyle;rounded=0;orthogonalLoop=1;jettySize=auto;html=1;exitX=0.5;exitY=1;exitDx=0;exitDy=0;" edge="1" parent="1" source="7QwwPpUZNARfCOMOwgrq-14" target="7QwwPpUZNARfCOMOwgrq-17">
          <mxGeometry relative="1" as="geometry" />
        </mxCell>
        <mxCell id="7QwwPpUZNARfCOMOwgrq-14" value="Process the image based on the ML model" style="whiteSpace=wrap;html=1;" vertex="1" parent="1">
          <mxGeometry x="350" y="650" width="120" height="60" as="geometry" />
        </mxCell>
        <mxCell id="7QwwPpUZNARfCOMOwgrq-21" style="edgeStyle=orthogonalEdgeStyle;rounded=0;orthogonalLoop=1;jettySize=auto;html=1;exitX=1;exitY=0.5;exitDx=0;exitDy=0;" edge="1" parent="1" source="7QwwPpUZNARfCOMOwgrq-17" target="7QwwPpUZNARfCOMOwgrq-20">
          <mxGeometry relative="1" as="geometry" />
        </mxCell>
        <mxCell id="7QwwPpUZNARfCOMOwgrq-22" style="edgeStyle=orthogonalEdgeStyle;rounded=0;orthogonalLoop=1;jettySize=auto;html=1;exitX=0;exitY=0.5;exitDx=0;exitDy=0;entryX=0.5;entryY=0;entryDx=0;entryDy=0;" edge="1" parent="1" source="7QwwPpUZNARfCOMOwgrq-17" target="7QwwPpUZNARfCOMOwgrq-19">
          <mxGeometry relative="1" as="geometry" />
        </mxCell>
        <mxCell id="7QwwPpUZNARfCOMOwgrq-17" value="Predict the output" style="rhombus;whiteSpace=wrap;html=1;" vertex="1" parent="1">
          <mxGeometry x="350" y="780" width="120" height="120" as="geometry" />
        </mxCell>
        <mxCell id="7QwwPpUZNARfCOMOwgrq-26" style="edgeStyle=orthogonalEdgeStyle;rounded=0;orthogonalLoop=1;jettySize=auto;html=1;exitX=0.5;exitY=1;exitDx=0;exitDy=0;" edge="1" parent="1" source="7QwwPpUZNARfCOMOwgrq-19" target="7QwwPpUZNARfCOMOwgrq-25">
          <mxGeometry relative="1" as="geometry" />
        </mxCell>
        <mxCell id="7QwwPpUZNARfCOMOwgrq-19" value="Fire" style="shape=parallelogram;perimeter=parallelogramPerimeter;whiteSpace=wrap;html=1;fixedSize=1;" vertex="1" parent="1">
          <mxGeometry x="240" y="920" width="120" height="60" as="geometry" />
        </mxCell>
        <mxCell id="7QwwPpUZNARfCOMOwgrq-28" style="edgeStyle=orthogonalEdgeStyle;rounded=0;orthogonalLoop=1;jettySize=auto;html=1;exitX=0.5;exitY=1;exitDx=0;exitDy=0;entryX=0.5;entryY=0;entryDx=0;entryDy=0;" edge="1" parent="1" source="7QwwPpUZNARfCOMOwgrq-20" target="7QwwPpUZNARfCOMOwgrq-25">
          <mxGeometry relative="1" as="geometry" />
        </mxCell>
        <mxCell id="7QwwPpUZNARfCOMOwgrq-20" value="No Fire" style="shape=parallelogram;perimeter=parallelogramPerimeter;whiteSpace=wrap;html=1;fixedSize=1;" vertex="1" parent="1">
          <mxGeometry x="450" y="920" width="120" height="60" as="geometry" />
        </mxCell>
        <mxCell id="7QwwPpUZNARfCOMOwgrq-23" value="Prediction &amp;gt;= 0.5" style="text;html=1;align=center;verticalAlign=middle;resizable=0;points=[];autosize=1;strokeColor=none;fillColor=none;" vertex="1" parent="1">
          <mxGeometry x="190" y="858" width="110" height="30" as="geometry" />
        </mxCell>
        <mxCell id="7QwwPpUZNARfCOMOwgrq-24" value="Prediction &amp;lt;= 0.5" style="text;html=1;align=center;verticalAlign=middle;resizable=0;points=[];autosize=1;strokeColor=none;fillColor=none;" vertex="1" parent="1">
          <mxGeometry x="510" y="858" width="110" height="30" as="geometry" />
        </mxCell>
        <mxCell id="7QwwPpUZNARfCOMOwgrq-25" value="Stop" style="ellipse;whiteSpace=wrap;html=1;" vertex="1" parent="1">
          <mxGeometry x="354" y="1030" width="120" height="80" as="geometry" />
        </mxCell>
      </root>
    </mxGraphModel>
  </diagram>
</mxfile>
